<svg width="25" height="25" viewBox="0 0 25 25" fill="none" xmlns="http://www.w3.org/2000/svg">
<path d="M24.4849 6.49877C24.1967 5.4278 23.3523 4.58361 22.2815 4.29522C20.3252 3.75983 12.4998 3.75983 12.4998 3.75983C12.4998 3.75983 4.67451 3.75983 2.71815 4.27481C1.66797 4.56301 0.80299 5.42799 0.514791 6.49877C0 8.45494 0 12.5118 0 12.5118C0 12.5118 0 16.5892 0.514791 18.5249C0.803181 19.5957 1.64737 20.4401 2.71834 20.7285C4.69511 21.2639 12.4999 21.2639 12.4999 21.2639C12.4999 21.2639 20.3252 21.2639 22.2815 20.7489C23.3525 20.4607 24.1967 19.6163 24.4851 18.5455C24.9999 16.5892 24.9999 12.5324 24.9999 12.5324C24.9999 12.5324 25.0205 8.45494 24.4849 6.49877Z" fill="#FF0000"/>
<path d="M10.0039 16.2606L16.5112 12.5126L10.0039 8.76471V16.2606Z" fill="white"/>
</svg>
