<svg width="25" height="25" viewBox="0 0 25 25" fill="none" xmlns="http://www.w3.org/2000/svg">
<g clip-path="url(#clip0_141_420)">
<path d="M1.56269 1.70115C-0.401896 3.74177 0.000187218 5.90948 0.000187218 12.4949C0.000187218 17.9636 -0.95398 23.4459 4.03977 24.7366C5.59915 25.1376 19.4158 25.1376 20.9731 24.7345C23.0523 24.198 24.7439 22.5116 24.9752 19.5709C25.0075 19.1605 25.0075 5.83656 24.9741 5.41781C24.7283 2.28552 22.8002 0.480313 20.2596 0.114688C19.6773 0.0303126 19.5606 0.00531261 16.5731 0.000104278C5.97623 0.00531261 3.65331 -0.466563 1.56269 1.70115Z" fill="url(#paint0_linear_141_420)"/>
<path d="M12.498 3.26964C8.71575 3.26964 5.12409 2.93318 3.75222 6.45401C3.18555 7.90818 3.26784 9.79672 3.26784 12.5009C3.26784 14.8738 3.1918 17.104 3.75222 18.5467C5.12096 22.0696 8.7418 21.7321 12.496 21.7321C16.1178 21.7321 19.8522 22.1092 21.2408 18.5467C21.8085 17.078 21.7251 15.2176 21.7251 12.5009C21.7251 8.89464 21.9241 6.56651 20.1751 4.81859C18.4043 3.04776 16.0095 3.26964 12.4939 3.26964H12.498ZM11.671 4.93318C19.5605 4.92068 20.5647 4.0436 20.0105 16.228C19.8137 20.5373 16.5324 20.0644 12.4991 20.0644C5.14492 20.0644 4.93346 19.854 4.93346 12.4967C4.93346 5.05401 5.5168 4.93734 11.671 4.93109V4.93318ZM17.4251 6.46547C16.8137 6.46547 16.3178 6.9613 16.3178 7.57276C16.3178 8.18422 16.8137 8.68005 17.4251 8.68005C18.0366 8.68005 18.5324 8.18422 18.5324 7.57276C18.5324 6.9613 18.0366 6.46547 17.4251 6.46547ZM12.498 7.76026C9.88034 7.76026 7.75846 9.88318 7.75846 12.5009C7.75846 15.1186 9.88034 17.2405 12.498 17.2405C15.1158 17.2405 17.2366 15.1186 17.2366 12.5009C17.2366 9.88318 15.1158 7.76026 12.498 7.76026ZM12.498 9.4238C16.5658 9.4238 16.571 15.578 12.498 15.578C8.43138 15.578 8.42513 9.4238 12.498 9.4238Z" fill="white"/>
</g>
<defs>
<linearGradient id="paint0_linear_141_420" x1="1.61062" y1="23.4033" x2="24.8455" y2="3.29383" gradientUnits="userSpaceOnUse">
<stop stop-color="#FFDD55"/>
<stop offset="0.5" stop-color="#FF543E"/>
<stop offset="1" stop-color="#C837AB"/>
</linearGradient>
<clipPath id="clip0_141_420">
<rect width="25" height="25" fill="white"/>
</clipPath>
</defs>
</svg>
